# xmcd
#
# Track frame offsets: 
#        150
#        9422
#        27084
#        41621
#        63374
#        79052
#        92708
#        103886
#        116087
#        126758
#        143206
#        162451
#        173014
#        178701
#        184742
#        201391
#
# Disc length: 2876 seconds
#
# Revision: 7
# Processed by: cddbd v1.5.2PL0 Copyright (c) Steve Scherf et al.
# Submitted via: ExactAudioCopyFreeDBPlugin 1.0
#
DISCID=da0b3a10
DTITLE=Johnny Cash - A Concert Behind Prison Walls
DYEAR=1982
DGENRE=Country
TTITLE0=Folsom Prisom Blues
TTITLE1=Sunday Morning Coming Down
TTITLE2=Jacob Green
TTITLE3=Johnny Cash with Forster Brooks - Comedy Routine
TTITLE4=Johnny Cash with Linda Ronstadt - Desperado
TTITLE5=Johnny Cash with Linda Ronstadt - You're No Good
TTITLE6=Johnny Cash with Roy Clark - Rolling In My Sweet Baby's Arms
TTITLE7=Johnny Cash with Roy Clark - That Honeymoon Feeling
TTITLE8=Johnny Cash with Roy Clark - Shuckin' The Corn
TTITLE9=Johnny Cash with Forster Brooks - Half As Much
TTITLE10=Johnny Cash with Linda Ronstadt - Love Has No Pride
TTITLE11=Johnny Cash with Linda Ronstadt - Silver Threads And Golden N
TTITLE11=eedles
TTITLE12=Hey Porter
TTITLE13=Wreck Of The Old Ninety Seven
TTITLE14=Orange Blossom Special
TTITLE15=A Boy Named Sue
EXTD=Recorded in 1976 at Nashville's Tennessee State Penitentiary for 
EXTD=a television special.\nRelease Date: Sep 23, 2003\nLabel: Eagle\n
EXTD=Type: Live\n YEAR: 2003
EXTT0=
EXTT1=
EXTT2=
EXTT3=
EXTT4=
EXTT5=
EXTT6=
EXTT7=
EXTT8=
EXTT9=
EXTT10=
EXTT11=
EXTT12=
EXTT13=
EXTT14=
EXTT15=
PLAYORDER=
